<svg xmlns="http://www.w3.org/2000/svg" width="20" height="20" viewBox="0 0 20 20">
    <path fill="#555" fill-rule="evenodd" d="M13.938 17.438a.54.54 0 0 1 .395.166.54.54 0 0 1 .167.396.54.54 0 0 1-.167.396.54.54 0 0 1-.396.166h-7.91a.54.54 0 0 1-.395-.166.54.54 0 0 1-.167-.396.54.54 0 0 1 .167-.396.54.54 0 0 1 .395-.166h7.91zM18.877 3.27c.012.035.035.439.07 1.212.035.774-.222 1.5-.773 2.18-.317.387-.72.683-1.213.888-.492.205-1.066.313-1.723.325a5.978 5.978 0 0 1-1.81 2.68c-.41.346-.862.628-1.354.844a5.228 5.228 0 0 1-1.564.414v3.92h1.74a.54.54 0 0 1 .396.166.54.54 0 0 1 .166.396.54.54 0 0 1-.166.395.54.54 0 0 1-.396.167H7.715a.556.556 0 0 1-.563-.563.556.556 0 0 1 .563-.562h1.67v-3.92a5.211 5.211 0 0 1-1.547-.413 5.579 5.579 0 0 1-1.354-.843 5.978 5.978 0 0 1-1.81-2.68c-.633-.024-1.19-.136-1.67-.335-.48-.2-.873-.492-1.178-.879-.55-.68-.808-1.406-.773-2.18.035-.773.058-1.177.07-1.212a.513.513 0 0 1 .193-.334.559.559 0 0 1 .352-.123H4.34V2.25a.54.54 0 0 1 .167-.396.54.54 0 0 1 .395-.167H15.01a.556.556 0 0 1 .563.563v.563h2.759c.129 0 .246.04.352.123.105.082.17.193.193.334zM2.687 5.959c.188.223.425.398.712.527.288.13.624.211 1.011.246a6.2 6.2 0 0 1-.07-.896V3.937H2.178a5.65 5.65 0 0 0 .061.976c.053.393.202.741.449 1.046zm11.76-.123V2.812H5.465v3.024c0 .68.117 1.315.351 1.907.235.592.557 1.108.967 1.547.41.44.888.788 1.433 1.046a4.038 4.038 0 0 0 1.749.387c.62 0 1.204-.13 1.749-.387a4.574 4.574 0 0 0 1.424-1.046c.404-.44.723-.955.958-1.547a5.132 5.132 0 0 0 .351-1.907zm2.866.123c.246-.305.395-.653.448-1.046a5.65 5.65 0 0 0 .061-.976h-2.25v1.899a5.957 5.957 0 0 1-.07.896c.41-.023.765-.102 1.063-.237a2.2 2.2 0 0 0 .747-.536z"/>
</svg>
