<svg xmlns="http://www.w3.org/2000/svg" width="20" height="20" viewBox="0 0 20 20">
    <path fill="#555" fill-rule="evenodd" d="M18.947 15.89a.472.472 0 0 1 .07.308.612.612 0 0 1-.122.308.529.529 0 0 1-.247.184.453.453 0 0 1-.316.01l-2.83-.634-.967 2.69a.507.507 0 0 1-.184.255.594.594 0 0 1-.29.114h-.053a.553.553 0 0 1-.29-.08.524.524 0 0 1-.202-.219l-2.936-5.361a4.442 4.442 0 0 1-.58.035 5.703 5.703 0 0 1-.633-.035l-2.883 5.361a.524.524 0 0 1-.202.22.553.553 0 0 1-.29.079h-.035a.613.613 0 0 1-.308-.114.507.507 0 0 1-.184-.255l-.967-2.69-2.83.633a.493.493 0 0 1-.563-.21.518.518 0 0 1-.052-.598l3.304-6.03a6.098 6.098 0 0 1-.545-2.549c0-.855.162-1.658.484-2.408a6.238 6.238 0 0 1 1.327-1.968 6.238 6.238 0 0 1 1.969-1.328A6.035 6.035 0 0 1 10 1.125c.855 0 1.658.161 2.408.483.75.323 1.404.765 1.96 1.328a6.44 6.44 0 0 1 1.327 1.968c.328.75.492 1.553.492 2.409 0 .445-.046.875-.14 1.291a7.038 7.038 0 0 1-.387 1.205l3.287 6.082zm-12.85 1.284l2.11-3.938a6.253 6.253 0 0 1-3.182-2.25l-2.39 4.342 2.092-.474a.517.517 0 0 1 .395.052c.123.07.214.17.273.3l.703 1.968zm-1.16-9.861a5.007 5.007 0 0 0 1.485 3.568c.464.457 1 .82 1.61 1.09.609.27 1.265.404 1.968.404a4.83 4.83 0 0 0 1.96-.404 5.08 5.08 0 0 0 2.69-2.698 4.923 4.923 0 0 0 .395-1.96c0-.692-.132-1.345-.396-1.96a5.08 5.08 0 0 0-2.689-2.699A4.83 4.83 0 0 0 10 2.25c-.703 0-1.36.135-1.969.404-.61.27-1.145.633-1.608 1.09a5.007 5.007 0 0 0-1.486 3.568zm10.336 7.54l2.092.475-2.373-4.377a6.4 6.4 0 0 1-1.432 1.406 6.198 6.198 0 0 1-1.82.897l2.162 3.937.703-1.986a.642.642 0 0 1 .273-.299.517.517 0 0 1 .395-.052z"/>
</svg>
