<svg xmlns="http://www.w3.org/2000/svg" width="20" height="20" viewBox="0 0 20 20">
    <path fill="#555" fill-rule="evenodd" d="M14.5 1.125l4.5 4.5V15.75c0 .316-.108.583-.325.8a1.087 1.087 0 0 1-.8.325h-3.938V15.75h3.938v-9h-4.5v-4.5H7.187c0-.316.109-.583.326-.8.216-.217.483-.325.8-.325H14.5zm0 4.5h2.9l-2.9-2.918v2.918zM2.125 3.375h6.188l4.5 4.5V18c0 .316-.109.583-.326.8a1.087 1.087 0 0 1-.8.325H2.126c-.316 0-.583-.108-.8-.325A1.087 1.087 0 0 1 1 18V4.5c0-.316.108-.583.325-.8.217-.217.484-.325.8-.325zM11.688 18V9h-4.5V4.5H2.125V18h9.563zM8.312 7.875h2.9l-2.9-2.918v2.918z"/>
</svg>
